<?xml version="1.0" encoding="utf-8"?>
<!-- Generator: Adobe Illustrator 21.1.0, SVG Export Plug-In . SVG Version: 6.00 Build 0)  -->
<svg version="1.1" id="Capa_1" xmlns="http://www.w3.org/2000/svg" xmlns:xlink="http://www.w3.org/1999/xlink" x="0px" y="0px"
	 viewBox="0 0 162.7 52.7" style="enable-background:new 0 0 162.7 52.7;" xml:space="preserve">
<style type="text/css">
	.st0{fill:#FFFFFF;}
</style>
<g>
	<path class="st0" d="M16.9,13C5.8,13,1.7,19,1.4,25.4h8.9c0.3-3.1,2.5-5.1,6.4-5.1c4,0,6.3,2.1,6.3,6v3.5h-9.4
		C4.8,29.7,0,34.1,0,41c0,7.3,5.1,11.7,12.7,11.7c5.7,0,8.9-2.4,10.4-5.3h0.4l9,4.7v-26C32.5,17.2,25.8,13,16.9,13z M23.1,39.5
		c0,3.7-3.3,6.2-7.4,6.2c-3.2,0-6.2-1.7-6.2-5.3c0-2.9,2.1-5,6.3-5h7.3V39.5z"/>
	<path class="st0" d="M66.2,19.3h-0.4c-1.7-3.6-5.7-6.1-11-6.1c-9.2,0-14.7,7.1-14.7,18.1v3.2c0,11.2,5.4,18.1,14.7,18.1
		c5.3,0,9.3-2.5,11.1-6.4h0.4l9.4,5.9V0h-9.6V19.3z M66.3,34.2c0,7-3.2,10.7-8.3,10.7c-4.7,0-8-3.6-8-10.8v-2.6
		c0-7.2,3.4-10.8,8-10.8c5.1,0,8.3,4,8.3,10.8V34.2z"/>
	<path class="st0" d="M106.5,13.1c-5.1,0-9.4,2.5-11.1,6.1H95V0h-9.3h-0.3H79l6.5,5v41.2v5.9l9.4-5.9h0.4c1.9,4,5.8,6.5,11.2,6.5
		c8.9,0,14.7-6.6,14.7-18.1v-3.4C121.2,19.4,115.2,13.1,106.5,13.1z M111.4,34.2c0,7-3.2,10.8-7.9,10.8c-5.2,0-8.5-3.7-8.5-10.8
		v-2.6c0-7.1,3.3-10.8,8.5-10.8c4.7,0,7.9,3.7,7.9,10.8V34.2z"/>
	<path class="st0" d="M153.1,13.6v22.8c0,5.4-3.3,8.2-7.5,8.2c-3.8,0-7.4-1.7-7.4-8.1V13.6h-9.5v25.4c0,9.1,5.3,13.6,13.2,13.6
		c6.3,0,9.9-3.2,11.1-6.2h0.4l9.3,5.6V13.6H153.1z"/>
</g>
</svg>
