<?xml version="1.0" encoding="utf-8"?>
<!-- Generator: Adobe Illustrator 21.1.0, SVG Export Plug-In . SVG Version: 6.00 Build 0)  -->
<svg version="1.1" id="Capa_1" xmlns="http://www.w3.org/2000/svg" xmlns:xlink="http://www.w3.org/1999/xlink" x="0px" y="0px"
	 viewBox="0 0 145 145" style="enable-background:new 0 0 145 145;" xml:space="preserve">
<style type="text/css">
	.st0{fill:#0F1F2F;}
	.st1{fill:#FFFFFF;}
</style>
<circle class="st0" cx="72.5" cy="72.5" r="72.5"/>
<g>
	<path class="st1" d="M66.1,101.5l-2.2-0.8c0.2-1.6,0.1-3.1-0.2-4.7l2.1-0.9c1.3-0.6,1.9-2.1,1.3-3.4L65.9,89
		c-0.6-1.3-2.1-1.9-3.4-1.3l-2.1,0.9c-1-1.2-2.2-2.3-3.5-3.2l0.8-2.1c0.5-1.3-0.2-2.8-1.5-3.3l-2.7-1c-1.3-0.5-2.8,0.2-3.3,1.5
		l-0.8,2.1c-1.6-0.2-3.2-0.1-4.7,0.2l-1-2.1c-0.6-1.3-2.1-1.9-3.4-1.3l-2.6,1.2c-1.3,0.6-1.9,2.1-1.3,3.4l1,2.1
		c-1.3,1-2.3,2.2-3.2,3.5L32,88.9c-1.3-0.5-2.8,0.2-3.3,1.5l-1,2.7c-0.2,0.6-0.2,1.3,0.1,2c0.3,0.6,0.8,1.1,1.4,1.3l2.1,0.8
		c-0.2,1.5-0.1,3.1,0.2,4.7l-2.1,1c-1.3,0.6-1.9,2.1-1.3,3.4l1.2,2.6c0.6,1.3,2.1,1.9,3.4,1.3l2.1-1c1,1.3,2.2,2.3,3.5,3.2l-0.8,2.1
		c-0.2,0.7-0.2,1.4,0.1,2c0.3,0.6,0.8,1.1,1.4,1.3l2.7,1c0.6,0.2,1.3,0.2,2-0.1c0.6-0.3,1.1-0.8,1.3-1.5l0.8-2.1
		c1.6,0.2,3.1,0.1,4.7-0.2l0.9,2.1c0.6,1.3,2.1,1.9,3.4,1.3l2.6-1.2c1.3-0.6,1.9-2.1,1.3-3.4l-0.9-2.1c1.3-1,2.3-2.2,3.2-3.5
		l2.1,0.8c0.7,0.2,1.3,0.2,2-0.1c0.6-0.3,1.1-0.8,1.3-1.5l1-2.7C68.1,103.5,67.4,102,66.1,101.5L66.1,101.5z M51.9,108.3
		c-1.4,0.6-2.8,0.9-4.3,0.9c-4,0-7.6-2.3-9.3-5.9c-2.4-5.1-0.1-11.2,5-13.5c1.4-0.6,2.8-0.9,4.3-0.9c4,0,7.6,2.3,9.3,5.9
		C59.3,99.8,57,105.9,51.9,108.3L51.9,108.3z M51.9,108.3"/>
	<path class="st1" d="M118.7,63.5l-3.6-1.3c0.3-2.6,0.2-5.3-0.3-8l3.5-1.6c2.2-1,3.1-3.6,2.1-5.8l-2-4.4c-1-2.2-3.6-3.1-5.8-2.1
		l-3.5,1.6c-1.7-2.1-3.7-3.9-5.8-5.4l1.3-3.6c0.8-2.2-0.3-4.7-2.6-5.6l-4.6-1.7c-2.2-0.8-4.8,0.4-5.6,2.6l-1.3,3.6
		c-2.6-0.3-5.3-0.2-8,0.3L81,28.6c-1-2.2-3.6-3.1-5.8-2.1l-4.4,2c-2.2,1-3.1,3.6-2.1,5.8l1.6,3.5c-2.1,1.7-3.9,3.7-5.4,5.9l-3.6-1.3
		c-2.2-0.8-4.8,0.4-5.6,2.6L54,49.4c-0.4,1.1-0.4,2.3,0.1,3.3c0.5,1.1,1.3,1.9,2.4,2.3l3.6,1.3c-0.3,2.6-0.2,5.3,0.3,8L57,65.9
		c-2.2,1-3.1,3.6-2.1,5.7l2,4.4c1,2.2,3.6,3.1,5.8,2.1l3.5-1.6c1.7,2.1,3.7,3.9,5.8,5.4l-1.3,3.6c-0.4,1.1-0.3,2.3,0.1,3.3
		c0.5,1.1,1.4,1.9,2.4,2.3l4.6,1.7c1.1,0.4,2.3,0.4,3.3-0.1c1.1-0.5,1.9-1.3,2.3-2.4l1.3-3.6c2.6,0.3,5.3,0.2,8-0.3l1.6,3.5
		c1,2.2,3.6,3.1,5.8,2.1l4.4-2c2.2-1,3.1-3.6,2.1-5.7l-1.6-3.5c2.1-1.7,3.9-3.7,5.4-5.9l3.6,1.3c1.1,0.4,2.3,0.4,3.3-0.1
		c1-0.5,1.8-1.3,2.2-2.4l1.7-4.6C122.1,66.8,120.9,64.3,118.7,63.5L118.7,63.5z M96.5,77.3c-2.7,1.2-5.5,1.9-8.5,1.9
		c-7.9,0-15.1-4.6-18.4-11.8c-4.7-10.1-0.2-22.2,9.9-26.9c2.7-1.2,5.5-1.9,8.5-1.9c7.9,0,15.1,4.6,18.4,11.8
		C111,60.6,106.6,72.6,96.5,77.3L96.5,77.3z M94.8,74.8"/>
</g>
</svg>
